<svg xmlns="http://www.w3.org/2000/svg"
  id="api"
  viewBox="0 0 64 64"
  fill="currentColor"
  stroke="none"
>
  <path d="M 42 5 L 42 15 L 52 15 L 42 5 z" />
  <path d="M 15 5 C 13.3 5 12 6.3 12 8 L 12 56 C 12 57.7 13.3 59 15 59 L 49 59 A 3 3 0 0 0 52 56 L 52 18 L 40.5 18 C 39.7 18 39 17.3 39 16.5 L 39 5 L 15 5 z M 29 19.5 L 29 19.5 L 35 19.5 C 37.5 19.5 39.5 21.5 39.5 24 L 39.5 25.5 L 42 25.5 C 44.5 25.5 46.5 27.5 46.5 30 L 46.5 35 C 46.5 37.5 44.5 39.5 42 39.5 L 39.5 39.5 L 39.5 44 C 39.5 46.5 37.5 48.5 35 48.5 L 29 48.5 C 26.5 48.5 24.5 46.5 24.5 44 L 24.5 42.5 L 22 42.5 C 19.5 42.5 17.5 40.5 17.5 38 L 17.5 33 C 17.5 30.5 19.5 28.5 22 28.5 L 24.5 28.5 L 24.5 24 C 24.5 21.5 26.5 19.5 29 19.5 z" />
  <path d="M 29 22.5 C 28.3 22.5 27.5 23.3 27.5 24 L 27.5 28.5 L 32 28.5 C 34 28.5 34 31.5 32 31.5 L 22 31.5 C 21.3 31.5 20.5 32.3 20.5 33 L 20.5 38 C 20.5 38.7 21.3 39.5 22 39.5 L 24.5 39.5 L 24.5 37 C 24.5 34.5 26.5 32.5 29 32.5 L 35 32.5 C 35.7 32.5 36.5 31.7 36.5 31 L 36.5 24 C 36.5 23.3 35.7 22.5 35 22.5 L 29 22.5 z M 31 23.5 C 31.8 23.5 32.5 24.2 32.5 25 C 32.5 25.8 31.8 26.5 31 26.5 C 30.2 26.5 29.5 25.8 29.5 25 C 29.5 24.2 30.2 23.5 31 23.5 z" />
  <path d="M 39.5 28.5 L 39.5 31 C 39.5 33.5 37.5 35.5 35 35.5 L 29 35.5 C 28.3 35.5 27.5 36.3 27.5 37 L 27.5 44 C 27.5 44.7 28.3 45.5 29 45.5 L 35 45.5 C 35.7 45.5 36.5 44.7 36.5 44 L 36.5 39.5 L 32 39.5 C 30 39.5 30 36.5 32 36.5 L 38 36.5 L 38 36.5 L 42 36.5 C 42.7 36.5 43.5 35.7 43.5 35 L 43.5 30 C 43.5 29.3 42.7 28.5 42 28.5 L 39.5 28.5 z M 33 41.5 C 33.8 41.5 34.5 42.2 34.5 43 C 34.5 43.8 33.8 44.5 33 44.5 C 32.2 44.5 31.5 43.8 31.5 43 C 31.5 42.2 32.2 41.5 33 41.5 z" />
</svg>