<svg xmlns="http://www.w3.org/2000/svg"
  id="arm"
  viewBox="0 0 64 64"
  fill="currentColor"
  stroke="none"
>
  <path d="m 15.9,8.7 h -2.4 v 1.5 c -0.9,-1.2 -2,-1.7 -3.6,-1.7 -3.3,0 -5.6,2.5 -5.6,5.8 0,3.3 2.3,5.8 5.6,5.8 1.6,0 2.6,-0.5 3.7,-1.7 v 1.4 h 2.4 z m -5.8,2.2 c 1.9,0 3.3,1.4 3.3,3.4 0,2 -1.3,3.3 -3.2,3.3 -1.9,0 -3.3,-1.3 -3.3,-3.3 0,-2 1.3,-3.5 3.2,-3.5 z M 29.2,8.7 h -2.4 v 1.5 c -0.9,-1.2 -2,-1.7 -3.6,-1.7 -3.3,0 -5.6,2.5 -5.6,5.8 0,3.3 2.3,5.8 5.6,5.8 1.6,0 2.6,-0.5 3.7,-1.7 v 1.4 h 2.4 z m -5.8,2.2 c 1.9,0 3.3,1.4 3.3,3.4 0,2 -1.3,3.3 -3.2,3.3 -1.9,0 -3.3,-1.3 -3.3,-3.3 0,-2 1.3,-3.5 3.2,-3.5 z m 8,8.9 h 2.7 v -6.2 c 0,-1.7 0.8,-2.6 2.4,-2.6 V 8.4 h -0.2 c -1.1,0 -1.7,0.3 -2.4,1.3 v -1.1 h -2.4 z m 14.1,-3.6 c -0.7,1 -1.4,1.5 -2.5,1.5 -1.8,0 -3.2,-1.4 -3.2,-3.4 0,-2 1.3,-3.3 3.2,-3.3 1.2,0 2,0.5 2.6,1.5 h 3 c -0.4,-1.1 -0.7,-1.6 -1.4,-2.3 -1.1,-1.1 -2.6,-1.6 -4.2,-1.6 -3.3,0 -5.8,2.5 -5.8,5.8 0,3.2 2.6,5.8 5.9,5.8 2.6,0 4.6,-1.4 5.5,-3.9 z m 4.6,3.6 h 2.7 v -5.6 c 0,-1.1 0.1,-1.7 0.4,-2.2 0.4,-0.7 1.1,-1.1 2,-1.1 1.6,0 2.2,0.9 2.2,3.2 v 5.7 h 2.7 v -6.3 c 0,-1.6 -0.2,-2.4 -0.7,-3.3 -0.7,-1.2 -2,-1.8 -3.7,-1.8 -1.2,0 -2,0.3 -2.8,1 v -4.5 h -2.7 z" />
  <path d="m 18.9,22.9 -9.3,13.9 c -2.6,3.8 -3.5,6.5 -3.5,9.9 0,7.1 5.3,12.2 12.4,12.2 7.1,0 12.1,-5.3 12.1,-12.7 0,-6.5 -4.1,-11.2 -9.8,-11.2 -1.1,0 -1.8,0.1 -2.9,0.5 l 8.5,-12.6 z m -0.6,17.7 c 3.6,0 6,2.6 6,6.3 0,3.7 -2.4,6.2 -5.7,6.2 -3.6,0 -6.1,-2.6 -6.1,-6.2 0,-3.6 2.4,-6.3 5.8,-6.3 z m 14.1,7.2 v 5.2 h 15.3 v 5.3 h 6.4 v -5.3 h 3.7 v -5.7 h -3.7 v -24.4 h -5.4 z m 15.3,-0.5 h -8.8 l 8.8,-13.7 z" />
</svg>