<svg xmlns="http://www.w3.org/2000/svg"
  id="discord"
  viewBox="0 0 64 64"
  fill="currentColor"
  stroke="none"
>
  <path d="m 54.2,11.4 c -4.1,-1.9 -8.6,-3.4 -13.2,-4.2 -0.6,1 -1.2,2.4 -1.7,3.5 -4.9,-0.7 -9.8,-0.7 -14.6,0 -0.5,-1.1 -1.1,-2.5 -1.7,-3.5 -4.6,0.8 -9.1,2.2 -13.2,4.2 -8.4,12.6 -10.6,24.9 -9.5,37.1 5.5,4.1 10.9,6.7 16.2,8.3 1.3,-1.8 2.5,-3.7 3.5,-5.7 -1.9,-0.7 -3.7,-1.6 -5.5,-2.7 0.5,-0.3 0.9,-0.7 1.3,-1.1 10.5,4.9 22,4.9 32.4,0 0.4,0.4 0.9,0.7 1.3,1.1 -1.7,1 -3.6,1.9 -5.5,2.7 1,2 2.2,3.9 3.5,5.7 5.3,-1.6 10.7,-4.2 16.2,-8.3 1.3,-14.1 -2.3,-26.3 -9.5,-37.1 z m -32.9,29.6 c -3.2,0 -5.8,-3 -5.8,-6.5 0,-3.6 2.5,-6.5 5.8,-6.5 3.2,0 5.8,3 5.8,6.5 0,3.6 -2.5,6.5 -5.8,6.5 z m 21.3,0 c -3.2,0 -5.8,-3 -5.8,-6.5 0,-3.6 2.5,-6.5 5.8,-6.5 3.2,0 5.8,3 5.8,6.5 0,3.6 -2.5,6.5 -5.8,6.5 z" />
</svg>