<svg xmlns="http://www.w3.org/2000/svg"
  id="fediverse"
  viewBox="0 0 64 64"
  fill="currentColor"
  stroke="none"
>
  <path d="m 28.4,7.2 -17.4,8.8 c 1,1 1.6,2.3 1.8,3.6 l 17.3,-8.8 c -0.9,-1 -1.6,-2.3 -1.8,-3.6 z m 12.7,2.1 c -0.6,1.2 -1.6,2.2 -2.9,2.9 l 13.7,13.8 c 0.7,-1.2 1.7,-2.2 2.9,-2.9 z m -10.8,1.6 -10.1,19.9 3,3 10.7,-21 c -1.4,-0.2 -2.6,-0.9 -3.6,-1.9 z m 7.9,1.3 c -1.6,0.8 -3.2,0.8 -4.1,0.7 l 1.6,9.8 4.2,0.7 z m -25.3,7.5 c 0.1,0.9 0.2,2.4 -0.6,4 l 9.9,1.6 2,-3.8 z m 16.9,2.7 -2,3.8 23.4,3.7 c -0.1,-0.9 -0.1,-2.4 0.7,-4 z m -17.6,1.4 c -0.7,1.2 -1.7,2.2 -2.9,2.9 l 15.8,15.8 3.8,-1.9 z m -3,2.9 c -1.6,0.8 -3.1,0.8 -4,0.6 l 3,19.2 c 0.8,-0.4 2.2,-0.9 4,-0.6 z m 27.4,1.6 3.6,23.4 c 0.8,-0.4 2.2,-0.9 4.1,-0.6 l -3.5,-22.1 z m 14.7,1.7 -8.8,4.5 0.6,4.2 10.1,-5.1 c -1,-1 -1.6,-2.3 -1.8,-3.6 z m 1.9,3.8 -8.9,17.3 c 1.4,0.2 2.6,0.8 3.6,1.8 l 8.9,-17.3 c -1.4,-0.2 -2.6,-0.9 -3.6,-1.8 z m -35.7,2.1 -5.1,10 c 1.4,0.2 2.6,0.9 3.6,1.9 l 4.5,-8.9 z m 19.7,1.3 -21.1,10.7 c 0.9,1 1.6,2.3 1.8,3.6 l 19.9,-10.1 z m -4.1,7.5 -3.8,1.9 8,8.1 c 0.7,-1.2 1.7,-2.2 2.9,-2.9 z m -15.1,6.9 c 0.1,0.9 0.1,2.4 -0.7,4 l 19.3,3.1 c -0.1,-0.9 -0.1,-2.4 0.7,-4 z" />
  <circle cx="6.2" cy="20.7" r="6.2" />
  <circle cx="35" cy="6.2" r="6.2" />
  <circle cx="57.9" cy="29.1" r="6.2" />
  <circle cx="11.2" cy="52.6" r="6.2" />
  <circle cx="43.1" cy="57.9" r="6.2" />
</svg>