<svg xmlns="http://www.w3.org/2000/svg"
  id="forum"
  viewBox="0 0 64 64"
  fill="currentColor"
  stroke="none"
>
<path d="m 8,12 c -4.4,0 -8,3.6 -8,8 v 24 c 0,4.4 3.6,8 8,8 h 6 v 10 a 0.8,0.8 22.5 0 0 1.4,0.6 L 26,52 h 6 c 4.4,0 8,-3.6 8,-8 H 20 C 13.4,44 8,38.6 8,32 Z" />
<path d="m 20,0 c -4.4,0 -8,3.6 -8,8 v 24 c 0,4.4 3.6,8 8,8 H 20 42 L 52.6,50.6 A 0.8,0.8 0 0 0 54,50 V 40 h 2 c 4.4,0 8,-3.6 8,-8 V 8 C 64,3.6 60.4,0 56,0 Z m 4,8 h 28 a 2,2 0 0 1 2,2 2,2 0 0 1 -2,2 H 24 a 2,2 0 0 1 -2,-2 2,2 0 0 1 2,-2 z m 0,10 h 28 a 2,2 0 0 1 2,2 2,2 0 0 1 -2,2 H 24 a 2,2 0 0 1 -2,-2 2,2 0 0 1 2,-2 z m 0,10 h 16 c 1.1,0 2,0.9 2,2 0,1.1 -0.9,2 -2,2 H 24 c -1.1,0 -2,-0.9 -2,-2 0,-1.1 0.9,-2 2,-2 z" />
</svg>