<svg xmlns="http://www.w3.org/2000/svg"
  id="gitea"
  viewBox="0 0 24 24"
  fill="currentColor"
  stroke="none"
>
  <path d="m 4.2,4.6 c -0.3,0 -1.8,0.1 -2.9,1.1 -1.7,1.5 -1.3,4 -1.2,4.3 0.1,0.5 0.3,1.7 1.2,2.8 1.8,2.1 5.5,2.1 5.5,2.1 0.9,2.1 2.7,4.3 4.1,4.5 h 7.2 c 0.5,0 1.3,-0.4 2.1,-1.3 C 21.6,16.5 24,11.2 24,6.5 24,5.7 23.8,4.7 23.2,4.7 c -4.1,0.2 -5.8,0.3 -8.3,0.3 v 4.5 L 14.3,9.2 V 5.1 C 12.4,5.1 6.3,4.8 4.2,4.6 Z m 0.5,1.8 c 0,0 0.3,2.3 0.6,3.6 C 5.5,11.2 6.2,13 6.2,13 5.9,13 4,12.7 3.2,11.9 1.9,11 1.5,8.8 2,7.7 2.5,6.7 3.7,6.4 4.7,6.4 Z m 8.2,2.6 c 0.2,0 0.3,0 0.5,0.1 l 0.9,0.4 -0.5,1.1 c -0.2,0 -0.5,0.1 -0.6,0.4 -0.1,0.2 -0.1,0.5 0.1,0.8 l -0.9,1.9 c -0.3,0 -0.6,0.2 -0.7,0.5 -0.1,0.3 0.1,0.6 0.3,0.8 0.3,0.1 0.7,0.1 0.9,-0.2 0.2,-0.3 0.2,-0.6 -0.1,-0.9 l 0.9,-1.9 c 0.2,0 0.3,0 0.5,-0.2 0.3,0.1 0.7,0.3 1,0.5 0.3,0.2 0.4,0.4 0.2,0.8 l -0.7,1.6 c -0.3,0 -0.6,0.2 -0.7,0.5 -0.1,0.3 0.1,0.6 0.3,0.8 0.3,0.1 0.7,0.1 0.9,-0.2 0.2,-0.3 0.2,-0.6 -0.1,-0.9 l 0.7,-1.6 c 0.3,-0.5 0.1,-1.2 -0.4,-1.4 -0.5,-0.3 -1.1,-0.6 -1.1,-0.6 0,-0.2 0,-0.3 -0.2,-0.5 l 0.5,-1.1 2.9,1.4 c 0.4,0.2 0.8,0.6 0.5,1.3 -0.2,0.6 -2.1,4.3 -2.1,4.3 -0.1,0.3 -0.5,0.7 -1.1,0.6 C 13.4,16.6 11.9,15.9 10.4,15.1 10,14.9 9.8,14.4 10,13.8 L 12.1,9.6 C 12.3,9.2 12.5,9 12.9,9 Z" />
</svg>