<svg xmlns="http://www.w3.org/2000/svg"
  id="kofi"
  viewBox="0 0 24 24"
  fill="currentColor"
  stroke="none"
>
    <path d="m 0,4 v 13 c 0,2.1 1.1,3 3,3 h 12 c 1.9,0 3,-0.9 3,-3 v -2 c 4.2,0 6,-1.9 6,-5.5 C 24,5.9 22.2,4 18,4 Z m 19,2.4 c 0.2,0 0.3,0 0.5,0.1 C 20.1,6.6 21.5,7.6 21.5,9.5 c 0,1.9 -1,2.8 -2,3 -1,0.2 -1.5,0 -1.5,0 V 6.5 c 0.1,0 0.6,-0.1 1,-0.1 z m -7.6,1.1 c 0.9,0 1.7,0.2 2.1,0.7 0.9,1 0.6,2.7 -0.1,3.7 C 12.8,12.9 9.2,16.1 9,16.2 8.8,16.1 5.2,12.9 4.5,12 3.8,11 3.5,9.3 4.4,8.3 5.4,7.3 7.6,7.2 9,8.7 9.7,7.9 10.6,7.6 11.4,7.5 Z" />
</svg>