<svg xmlns="http://www.w3.org/2000/svg"
  id="linkedin"
  viewBox="0 0 64 64"
  fill="currentColor"
  stroke="none"
>
  <path d="M 7.1,0 C 3.2,0 0,3.2 0,7.1 V 56.9 C 0,60.8 3.2,64 7.1,64 H 56.9 C 60.8,64 64,60.8 64,56.9 V 7.1 C 64,3.2 60.8,0 56.9,0 Z m 7.4,8.9 c 3.1,0 5.6,2.5 5.6,5.7 0,3.1 -2.5,5.7 -5.6,5.7 -3.1,0 -5.6,-2.5 -5.6,-5.7 0,-3.1 2.5,-5.7 5.6,-5.7 z m 29.4,14.5 c 6.5,0 11.2,4 11.2,12.2 V 55.1 H 45.6 V 38.9 c 0,-4.4 -1.7,-6.9 -5.2,-6.9 -3.8,0 -5.8,2.6 -5.8,6.9 V 55.1 H 25.4 V 24.3 h 9.2 v 4.2 c 0,0 2.8,-5.1 9.3,-5.1 z M 9.8,24.3 h 9.5 V 55.1 H 9.8 Z" />
</svg>