<svg xmlns="http://www.w3.org/2000/svg"
  id="linux"
  viewBox="0 0 64 64"
  fill="currentColor"
  stroke="none"
>
  <path d="M 49,49.5 C 45,48.5 33,50 33,57.4 l -2,0 c 0,-7.4 -9.5,-9.2 -16,-7.9 -2.5,-9.9 2,-21.2 7.5,-24.5 -1.5,-0.9 -3,-2.1 -3,-5.5 0,-3.4 1.7,-7 6,-7 4.3,0 6,5.5 6,5.5 0,0 -0.7,-1.5 -1.5,-1.5 -2.9,0 -2.8,6 0,6 1,0 1.5,-1 1.5,-1 v 1 c -1.7,0.3 -5.9,1.9 -4.5,3.5 1.4,1.6 3.2,3.4 4,4 0.8,0.6 1.2,0.6 2,0 0.8,-0.6 2.4,-2.1 4,-4 1.6,-1.9 -2.5,-3 -4.5,-3.5 v -1 c 0,0 0.5,0.5 1.5,0.5 2.2,0 2,-5 0,-5 -0.7,0 -1.5,1 -1.5,1 0,0 2.3,-3.5 6,-3.5 3.7,0 6,2.4 6,5 0,2.6 -1.7,4.4 -4,5 6.1,2.9 12,15.1 8.5,25 z M 62,34 C 58.4,31.9 53.5,28.9 52,25 47.5,13 47.6,4 32,4 16.4,4 16.6,13.8 12,25 c -2.6,3.8 -6.5,6.9 -10,9 -3.5,2.1 -2.1,4.8 2,3 4.1,-1.8 4.6,-1.3 5,3 0.6,4.1 2,7.4 4,10 -7.1,2.4 -8.9,10 -3,10 H 27 c 1.2,0 2.7,-0.5 3.5,-1.5 h 3 c 0.8,1 2.3,1.5 3.5,1.5 h 17 c 5.9,0 5.4,-7.3 -3,-10 1.9,-2.8 2.6,-5.7 4,-10 1.4,-4.3 1,-5 5,-3 4,2 5.6,-0.9 2,-3 z" />
</svg>