<svg xmlns="http://www.w3.org/2000/svg"
  id="manual"
  viewBox="0 0 64 64"
  stroke="currentColor"
  stroke-width="2"
  stroke-linecap="round"
  stroke-linejoin="round"
>
  <path fill="currentColor" d="M 17.2 7 C 13.8 7 11 9.8 11 13.2 L 11 50.8 C 11 47.3 13.8 44.5 17.2 44.5 L 53 44.5 L 53 7 L 17.2 7 z M 24.6 10 L 46 10 L 46 21 C 46 22.4 44.5 22.9 43.5 23.7 C 43.1 24.1 42.4 24.3 42.6 24.9 C 43.1 25.6 44 26 44.6 26.6 C 45.5 27 45.9 28.1 45.5 29.1 C 45.1 30 45 31.1 44.4 32 C 43.5 33 42 32.6 40.8 32.6 C 40.4 32.6 39.9 32.6 39.8 33.1 C 40 33.9 40.3 34.7 40.5 35.5 C 41 36.4 40.7 37.4 39.9 38 C 39 38.5 38.4 39.2 37.5 39.7 C 36.2 40.2 35.1 39.1 34.2 38.5 C 33.8 38.2 33.4 37.5 32.8 38 C 32.4 38.6 32.2 39.3 32.1 40 C 31.8 41.2 31.3 42 30 42 L 19 42 L 19 15.6 L 24.6 10 z" />
  <path fill="none" d="m 53,44.5 c -5,0 -5,12.5 0,12.5 H 17.2 C 13.8,57 11,54.2 11,50.8" />
  <path fill="currentColor" stroke="none" d="M 40,21 V 16 H 25 v 20 h 5 l 0,-6.2 h 5 v -5 H 30 V 21 Z" />
</svg>