<svg xmlns="http://www.w3.org/2000/svg"
  id="mastodon"
  viewBox="0 0 64 64"
  fill="currentColor"
  stroke="none"
>
  <path d="m 31.4,0 c -10.5,0 -12.8,0.7 -14,0.8 -6.9,1 -13.2,5.9 -14.8,12.8 -0.7,3.4 -0.8,7.2 -0.7,10.7 0.2,5 0.2,10 0.7,15 0.3,3.3 0.9,6.6 1.6,9.8 1.4,6 7.3,10.9 13.1,12.9 6.2,2.1 12.8,2.5 19.2,1 0.7,-0.2 1.4,-0.3 2.1,-0.6 1.6,-0.5 3.4,-1 4.7,-2 0,0 0,0 0,-0.1 0,0 0,0 0,-0.1 V 55.6 c 0,0 0,0 0,-0.1 0,0 0,0 0,-0.1 0,0 0,0 -0.1,0 0,0 0,0 -0.1,0 -4.1,1 -8.3,1.5 -12.4,1.5 -7.2,0 -9.2,-3.4 -9.7,-4.8 -0.5,-1.2 -0.7,-2.5 -0.8,-3.8 0,0 0,-0.1 0,-0.1 0,0 0,0 0,-0.1 0,0 0,0 0.1,0 0,0 0,0 0.1,0 4,1 8.1,1.5 12.2,1.5 1,0 2,0 3,0 4.2,-0.1 8.5,-0.3 12.6,-1.1 0.1,0 0.2,0 0.3,-0.1 6.4,-1.2 12.6,-5.1 13.2,-14.9 0,-0.4 0.1,-4 0.1,-4.5 0,-1.4 0.4,-9.7 -0.1,-14.8 -0.9,-6.9 -6.9,-12.3 -14,-13.3 -1.2,-0.2 -5.7,-0.8 -16.3,-0.8 z m -8.8,10.5 c 3.5,0 6.1,1.3 7.8,4 l 1.7,2.8 1.7,-2.8 c 1.8,-2.7 4.4,-4 7.8,-4 3,0 5.4,1.1 7.2,3.1 1.8,2 2.7,4.8 2.7,8.3 v 17.1 h -6.8 V 22.4 c 0,-3.5 -1.4,-5.3 -4.4,-5.3 -3.2,0 -4.9,2.1 -4.9,6.3 v 9.1 h -6.7 V 23.4 c 0,-4.2 -1.6,-6.3 -4.9,-6.3 -2.9,0 -4.4,1.8 -4.4,5.3 v 16.6 h -6.8 V 21.9 c 0,-3.5 0.9,-6.3 2.7,-8.3 1.8,-2 4.2,-3.1 7.2,-3.1 z" />
</svg>