<svg xmlns="http://www.w3.org/2000/svg"
  id="matrix"
  viewBox="0 0 24 24"
  fill="currentColor"
  stroke="none"
>
  <path d="M 22,22 V 2 H 20 V 0 h 4 v 24 h -4 v -2 z" />
  <path d="m 7,7.2 v 1.3 h 0 C 7.4,8.1 7.8,7.7 8.3,7.4 8.8,7.1 9.4,7 10.1,7 c 0.6,0 1.2,0.1 1.7,0.4 0.5,0.2 0.9,0.7 1.2,1.3 0.3,-0.4 0.7,-0.8 1.2,-1.1 0.5,-0.3 1.1,-0.5 1.8,-0.5 0.5,0 1,0.1 1.4,0.2 0.4,0.1 0.8,0.3 1.1,0.6 0.3,0.3 0.6,0.6 0.7,1.1 0.2,0.5 0.3,1 0.3,1.6 v 6.6 h -2.7 v -5.6 c 0,-0.3 0,-0.6 0,-0.9 0,-0.3 -0.1,-0.5 -0.2,-0.8 -0.1,-0.2 -0.3,-0.4 -0.5,-0.5 -0.2,-0.1 -0.5,-0.2 -0.9,-0.2 -0.4,0 -0.7,0.1 -0.9,0.2 -0.2,0.1 -0.4,0.3 -0.6,0.6 -0.1,0.2 -0.2,0.5 -0.3,0.8 0,0.3 -0.1,0.6 -0.1,0.9 v 5.5 h -2.7 v -5.5 c 0,-0.3 0,-0.6 0,-0.9 0,-0.3 -0.1,-0.5 -0.2,-0.8 -0.1,-0.2 -0.3,-0.4 -0.5,-0.6 -0.2,-0.1 -0.6,-0.2 -1,-0.2 -0.2,0 -0.3,0 -0.5,0.1 -0.2,0.1 -0.4,0.2 -0.6,0.3 -0.2,0.2 -0.4,0.4 -0.5,0.7 -0.1,0.3 -0.2,0.7 -0.2,1.2 V 17.1 H 4.5 V 7.2 Z" />
  <path d="m 2,2 v 20 h 1 1 v 2 H 0 V 0 h 4 v 2 z" />
</svg>