<svg xmlns="http://www.w3.org/2000/svg"
  id="msi"
  viewBox="0 0 64 64"
  fill="currentColor"
  stroke="none"
>
  <path d="m 1.8,44.6 h 5.3 v -10.9 c 0,-2.1 0.2,-3.6 0.5,-4.5 0.6,-1.6 2,-2.4 3.8,-2.4 1.4,0 2.6,0.5 3.3,1.3 0.7,0.8 1,2.2 1,4.3 v 12.2 h 5.3 v -10.9 c 0,-2.4 0.2,-3.6 0.7,-4.6 0.7,-1.4 2.1,-2.2 3.8,-2.2 1.3,0 2.4,0.4 3.1,1.3 0.8,0.8 1.1,2.1 1.1,4.4 v 12.2 h 5.3 v -12.8 c 0,-2.6 -0.5,-4.7 -1.3,-6.2 -1.4,-2.4 -4.2,-3.7 -7.7,-3.7 -3.1,0 -5.3,1 -7.1,3.4 -1.5,-2.4 -3.4,-3.4 -6.5,-3.4 -2.6,0 -4.2,0.7 -5.8,2.6 v -2.1 H 1.8 Z m 35.9,-7 c 0.2,2.1 0.6,3.2 1.4,4.4 1.4,2 4,3.2 6.7,3.2 4.4,0 7.9,-3.3 7.9,-7.6 0,-3.4 -1.7,-5.1 -6.2,-6.5 -2.2,-0.7 -2.2,-0.7 -2.7,-0.9 -0.7,-0.3 -1,-0.8 -1,-1.5 0,-1.1 0.9,-1.9 2,-1.9 1.1,0 1.8,0.6 2.1,1.8 h 5.2 c -0.1,-1.8 -0.5,-2.9 -1.4,-4 -1.4,-1.6 -3.6,-2.6 -5.8,-2.6 -4.2,0 -7.4,3 -7.4,6.8 0,3.2 1.7,5.1 6.2,6.6 2,0.7 2.2,0.8 2.8,1.1 0.6,0.4 1,1 1,1.7 0,1.2 -1,2.2 -2.4,2.2 -1.6,0 -2.4,-0.8 -3,-2.7 z m 19.1,7 h 5.3 v -22.2 h -5.3 z m 0,-24.6 h 5.3 v -5 h -5.3 z" />
</svg>