<svg xmlns="http://www.w3.org/2000/svg"
  id="note"
  viewBox="0 0 24 24"
  fill="none"
  stroke="currentColor"
  stroke-width="2"
  stroke-linecap="round"
  stroke-linejoin="round"
>
  <path d="M 8.7,4.2 H 5.6 c -1.2,0 -1.9,0 -2.3,0.2 C 2.8,4.7 2.5,5 2.2,5.4 2,5.9 2,6.5 2,7.8 V 18.4 c 0,1.2 0,1.9 0.2,2.3 0.2,0.4 0.6,0.8 1,1 0.5,0.2 1.1,0.2 2.3,0.2 H 16.2 c 1.2,0 1.9,0 2.3,-0.2 0.4,-0.2 0.8,-0.6 1,-1 0.2,-0.5 0.2,-1.1 0.2,-2.3 V 15.3 M 15.3,5.3 8.7,12 v 3.3 H 12 L 18.7,8.7 M 15.3,5.3 18.7,2 22,5.3 18.7,8.7 M 15.3,5.3 18.7,8.7" />
</svg>