<svg xmlns="http://www.w3.org/2000/svg"
  id="phone"
  viewBox="0 0 24 24"
  fill="none"
  stroke="currentColor"
  stroke-width="2"
  stroke-linecap="round"
  stroke-linejoin="round"
>
  <rect fill="currentColor" x="9" y="4" width="6" height="1" rx="0.5" />
  <path fill="currentColor" d="M12 20C12.3 20 12.5 19.9 12.7 19.7C12.9 19.5 13 19.3 13 19C13 18.7 12.9 18.5 12.7 18.3C12.5 18.1 12.3 18 12 18C11.7 18 11.5 18.1 11.3 18.3C11.1 18.5 11 18.7 11 19C11 19.3 11.1 19.5 11.3 19.7C11.5 19.9 11.7 20 12 20Z" />
  <rect x="5" y="1" width="14" height="22" rx="2" />
</svg>