<svg xmlns="http://www.w3.org/2000/svg"
  id="reddit"
  viewBox="0 0 24 24"
  fill="currentColor"
  stroke="none"
>
  <path d="M24 11.8c0-1.5-1.2-2.6-2.7-2.6-0.7 0-1.4 0.3-1.8 0.7-1.8-1.2-4.3-1.9-7-2l1.5-4.7 4 0.9 0 0.1c0 1.2 1 2.2 2.2 2.2 1.2 0 2.2-1 2.2-2.2s-1-2.2-2.2-2.2c-0.9 0-1.7 0.6-2 1.4l-4.3-1c-0.2 0-0.4 0.1-0.4 0.2l-1.7 5.2c-2.8 0-5.4 0.8-7.3 2-0.5-0.4-1.1-0.7-1.8-0.7-1.5 0-2.7 1.2-2.7 2.6 0 1 0.5 1.8 1.3 2.3-0.1 0.3-0.1 0.6-0.1 0.9 0 3.9 4.8 7.1 10.7 7.1s10.7-3.2 10.7-7.1c0-0.3 0-0.5-0.1-0.8 0.8-0.4 1.4-1.3 1.4-2.3zm-17.2 1.8c0-0.9 0.7-1.6 1.6-1.6 0.9 0 1.6 0.7 1.6 1.6s-0.7 1.6-1.6 1.6-1.6-0.7-1.6-1.6zm9.1 4.7c-0.8 0.8-2 1.2-3.8 1.2l0 0 0 0c-1.8 0-3-0.4-3.8-1.2-0.1-0.1-0.1-0.4 0-0.5 0.1-0.1 0.4-0.1 0.5 0 0.7 0.6 1.7 1 3.3 1l0 0 0 0c1.6 0 2.6-0.3 3.3-1 0.1-0.1 0.4-0.1 0.5 0 0.1 0.1 0.1 0.4 0 0.5zm-0.2-3.1c-0.9 0-1.6-0.7-1.6-1.6 0-0.9 0.7-1.6 1.6-1.6s1.6 0.7 1.6 1.6-0.7 1.6-1.6 1.6z" />
</svg>