<svg xmlns="http://www.w3.org/2000/svg"
  id="steam"
  viewBox="0 0 24 24"
  fill="currentColor"
  stroke="none"
>
  <path d="M12 0C5.7 0 0.5 4.9 0 11l6.4 2.7c0.5-0.4 1.2-0.6 1.9-0.6 0.1 0 0.1 0 0.2 0l2.9-4.1V8.9c0-2.5 2-4.5 4.5-4.5 2.5 0 4.5 2 4.5 4.5s-2 4.5-4.5 4.5h-0.1l-4.1 2.9c0 0.1 0 0.1 0 0.2 0 1.9-1.5 3.4-3.4 3.4-1.6 0-3-1.2-3.3-2.7L0.4 15.3C1.9 20.3 6.5 24 12 24c6.6 0 12-5.4 12-12S18.6 0 12 0zM7.5 18.2l-1.5-0.6c0.3 0.5 0.7 1 1.3 1.2 1.3 0.5 2.8-0.1 3.3-1.4 0.3-0.6 0.3-1.3 0-1.9s-0.8-1.1-1.4-1.4c-0.6-0.3-1.3-0.2-1.9 0l1.5 0.6c1 0.4 1.4 1.5 1 2.5-0.4 1-1.5 1.4-2.5 1H7.5zm11.4-9.3c0-1.7-1.4-3-3-3-1.7 0-3 1.4-3 3 0 1.7 1.4 3 3 3 1.7 0 3-1.4 3-3zm-5.3 0c0-1.3 1-2.3 2.3-2.3 1.2 0 2.3 1 2.3 2.3 0 1.3-1 2.3-2.3 2.3-1.3 0-2.3-1-2.3-2.3z" />
</svg>