<svg xmlns="http://www.w3.org/2000/svg"
  id="tutorial"
  viewBox="0 0 64 64"
  fill="currentColor"
  stroke="none"
>
  <path d="m 5.8,28.5 c -1,0 -1.8,0.8 -1.8,1.8 0,1 0.8,1.8 1.8,1.8 10.6,0 19.2,8.6 19.2,19.2 0,1 0.8,1.8 1.8,1.8 1,0 1.8,-0.8 1.8,-1.8 0,-12.6 -10.2,-22.8 -22.8,-22.8 z" />
  <path d="m 5.8,35.5 c -1,0 -1.8,0.8 -1.8,1.8 0,1 0.8,1.8 1.8,1.8 6.8,0 12.2,5.5 12.2,12.2 0,1 0.8,1.8 1.8,1.8 1,0 1.8,-0.8 1.8,-1.8 0,-8.7 -7,-15.8 -15.8,-15.8 z" />
  <path d="m 5.8,42.5 c -1,0 -1.8,0.8 -1.8,1.8 0,1 0.8,1.8 1.8,1.8 2.9,0 5.2,2.4 5.2,5.2 0,1 0.8,1.8 1.8,1.8 1,0 1.8,-0.8 1.8,-1.8 0,-4.8 -3.9,-8.8 -8.8,-8.8 z" />
  <path d="M 9.2,11 C 6.4,11 4,13.4 4,16.2 v 7 c 0,1 0.8,1.8 1.8,1.8 14.5,0 26.2,11.8 26.2,26.2 0,1 0.8,1.8 1.8,1.8 h 21 c 2.9,0 5.2,-2.4 5.2,-5.2 V 16.2 C 60,13.4 57.6,11 54.8,11 Z m 19.4,4.1 c 0.2,0 0.4,0.1 0.5,0.3 l 1,1.8 c 0.1,0.1 0.2,0.2 0.3,0.2 l 1.7,0.1 c 0.1,0 0.2,-0.1 0.3,-0.2 l 1.1,-1.6 c 0.1,-0.3 0.5,-0.3 0.7,-0.2 l 1.2,0.6 c 0.3,0.1 0.4,0.4 0.3,0.7 l -0.6,1.9 c -0.1,0.1 0,0.3 0.1,0.3 l 1.1,1.2 c 0.1,0.1 0.2,0.1 0.3,0.1 l 2,-0.4 c 0.3,-0.1 0.6,0.1 0.7,0.3 l 0.4,1.3 c 0.1,0.3 0,0.6 -0.3,0.7 l -1.8,1 c -0.1,0.1 -0.2,0.2 -0.2,0.3 l -0.1,1.7 c 0,0.1 0.1,0.2 0.2,0.3 l 1.7,1.1 c 0.3,0.1 0.3,0.5 0.2,0.7 l -0.6,1.2 c -0.1,0.3 -0.4,0.4 -0.7,0.3 l -1.9,-0.6 c -0.1,-0.1 -0.3,0 -0.3,0.1 l -1.3,1.1 c -0.1,0.1 -0.1,0.2 -0.1,0.3 l 0.4,2 c 0.1,0.3 -0.1,0.6 -0.3,0.7 l -1.2,0.4 c -0.3,0.1 -0.6,0 -0.7,-0.3 l -1,-1.8 c -0.1,-0.1 -0.2,-0.2 -0.3,-0.2 l -1.7,-0.1 c -0.1,0 -0.2,0.1 -0.3,0.2 l -1.1,1.7 c -0.1,0.3 -0.5,0.3 -0.7,0.2 l -1.2,-0.6 c -0.3,-0.1 -0.4,-0.4 -0.3,-0.7 l 0.6,-1.9 c 0.1,-0.1 0,-0.3 -0.1,-0.3 l -1.1,-1.2 c -0.1,-0.1 -0.2,-0.1 -0.3,-0.1 l -2,0.4 c -0.3,0.1 -0.6,-0.1 -0.7,-0.3 l -0.5,-1.2 c -0.1,-0.3 0.1,-0.6 0.3,-0.7 l 1.8,-1 c 0.1,-0.1 0.2,-0.2 0.2,-0.3 l 0.1,-1.7 c 0,-0.1 -0.1,-0.2 -0.2,-0.3 l -1.7,-1.1 c -0.3,-0.1 -0.4,-0.5 -0.2,-0.7 l 0.6,-1.2 c 0.1,-0.3 0.4,-0.4 0.7,-0.3 l 1.9,0.6 c 0.1,0.1 0.3,0 0.3,-0.1 l 1.3,-1.1 c 0.1,-0.1 0.1,-0.2 0.1,-0.3 l -0.4,-2 c -0.1,-0.3 0.1,-0.6 0.3,-0.7 l 1.3,-0.4 c 0.1,0 0.1,-0.1 0.2,0 z m 2.4,5.8 c -0.4,0 -0.8,0.1 -1.2,0.2 -0.8,0.3 -1.4,0.8 -1.8,1.6 -0.3,0.8 -0.4,1.6 -0.1,2.4 0.3,0.8 0.8,1.4 1.6,1.8 0.8,0.3 1.6,0.4 2.4,0.1 0.8,-0.3 1.4,-0.8 1.8,-1.6 0.3,-0.8 0.4,-1.6 0.1,-2.4 -0.3,-0.8 -0.8,-1.4 -1.6,-1.8 -0.4,-0.2 -0.8,-0.3 -1.2,-0.3 z m 13.5,5.9 h 1.7 c 0.4,0 0.7,0.3 0.7,0.7 l 0.4,2.5 c 0,0.2 0.1,0.3 0.3,0.3 l 2,0.8 c 0.1,0.1 0.3,0 0.4,-0.1 l 2,-1.5 c 0.3,-0.2 0.7,-0.2 1,0.1 l 1.2,1.2 c 0.3,0.3 0.3,0.7 0.1,1 l -1.5,2 c -0.1,0.1 -0.1,0.3 -0.1,0.4 l 0.8,2 c 0.1,0.1 0.2,0.3 0.3,0.3 l 2.5,0.4 c 0.4,0 0.7,0.3 0.7,0.7 v 1.7 c 0,0.4 -0.3,0.7 -0.7,0.7 l -2.5,0.4 c -0.2,0 -0.3,0.1 -0.3,0.3 l -0.8,2 c -0.1,0.1 0,0.3 0.1,0.4 l 1.5,2 c 0.2,0.3 0.2,0.7 -0.1,1 l -1.2,1.2 c -0.3,0.3 -0.7,0.3 -1,0.1 l -2,-1.5 c -0.1,-0.1 -0.3,-0.1 -0.4,-0.1 l -2,0.8 c -0.1,0.1 -0.3,0.2 -0.3,0.3 l -0.4,2.5 c 0,0.4 -0.3,0.7 -0.7,0.7 h -1.7 c -0.4,0 -0.7,-0.3 -0.7,-0.7 l -0.4,-2.5 c 0,-0.2 -0.1,-0.3 -0.3,-0.3 l -2,-0.8 c -0.1,-0.1 -0.3,0 -0.4,0.1 l -2,1.5 c -0.3,0.2 -0.7,0.2 -1,-0.1 l -1.2,-1.2 c -0.3,-0.3 -0.3,-0.7 -0.1,-1 l 1.5,-2 c 0.1,-0.1 0.1,-0.3 0.1,-0.4 l -0.8,-2 c -0.1,-0.1 -0.2,-0.3 -0.3,-0.3 l -2.5,-0.4 c -0.4,0 -0.7,-0.3 -0.7,-0.7 v -1.7 c 0,-0.4 0.3,-0.7 0.7,-0.7 l 2.5,-0.4 c 0.2,0 0.3,-0.1 0.3,-0.3 l 0.8,-2 c 0.1,-0.1 0.1,-0.3 -0.1,-0.4 l -1.5,-2 c -0.2,-0.3 -0.2,-0.7 0.1,-1 l 1.2,-1.2 c 0.3,-0.3 0.7,-0.3 1,-0.1 l 2,1.5 c 0.1,0.1 0.3,0.1 0.4,0.1 l 2,-0.8 c 0.1,-0.1 0.3,-0.2 0.3,-0.3 l 0.4,-2.5 c 0,-0.4 0.3,-0.7 0.7,-0.7 z m 0.8,7.7 c -1.1,0 -2,0.4 -2.8,1.2 -0.8,0.8 -1.2,1.8 -1.2,2.8 0,1.1 0.4,2 1.2,2.8 0.8,0.8 1.8,1.2 2.8,1.2 1.1,0 2,-0.4 2.8,-1.2 0.8,-0.8 1.2,-1.8 1.2,-2.8 0,-1.1 -0.4,-2 -1.2,-2.8 -0.8,-0.8 -1.8,-1.2 -2.8,-1.2 z" />
</svg>