<svg xmlns="http://www.w3.org/2000/svg"
  id="x86"
  viewBox="0 0 64 64"
  fill="currentColor"
  stroke="none"
>
  <path d="m 15.5,19.8 h 3.2 l 2.3,-3.8 2.3,3.8 h 3.2 l -3.9,-5.7 3.4,-5.4 h -3 l -2,3.3 -2,-3.3 h -3 l 3.4,5.4 z m 13.9,-8.2 c -0.7,0.4 -1,0.6 -1.3,1 -0.5,0.7 -0.8,1.6 -0.8,2.6 0,2.8 2.1,4.9 4.9,4.9 2.8,0 4.9,-2.1 4.9,-4.9 0,-1.1 -0.3,-2 -0.9,-2.7 -0.3,-0.3 -0.6,-0.5 -1.2,-0.9 0.9,-0.7 1.2,-1.6 1.2,-2.8 0,-2.3 -1.7,-4 -4,-4 -2.3,0 -4.1,1.8 -4.1,4.1 0,1.1 0.3,1.8 1.2,2.8 z m 2.8,-4.4 c 0.9,0 1.5,0.7 1.5,1.6 0,0.9 -0.7,1.6 -1.5,1.6 -0.8,0 -1.5,-0.7 -1.5,-1.6 0,-0.9 0.7,-1.6 1.5,-1.6 z m 0,5.8 c 1.3,0 2.3,1 2.3,2.3 0,1.3 -1,2.3 -2.2,2.3 -1.3,0 -2.3,-1 -2.3,-2.3 0,-1.3 1,-2.3 2.2,-2.3 z m 11.4,-8 -3.9,5.8 c -1.1,1.6 -1.5,2.7 -1.5,4.1 0,2.9 2.2,5.1 5.2,5.1 3,0 5.1,-2.2 5.1,-5.3 0,-2.7 -1.7,-4.7 -4.1,-4.7 -0.5,0 -0.7,0 -1.2,0.2 l 3.5,-5.3 z m -0.3,7.4 c 1.5,0 2.5,1.1 2.5,2.6 0,1.5 -1,2.6 -2.4,2.6 -1.5,0 -2.5,-1.1 -2.5,-2.6 0,-1.5 1,-2.6 2.4,-2.6 z" />
  <path d="m 18.9,22.9 -9.3,13.9 c -2.6,3.8 -3.5,6.5 -3.5,9.9 0,7.1 5.3,12.2 12.4,12.2 7.1,0 12.1,-5.3 12.1,-12.7 0,-6.5 -4.1,-11.2 -9.8,-11.2 -1.1,0 -1.8,0.1 -2.9,0.5 l 8.5,-12.6 z m -0.6,17.7 c 3.6,0 6,2.6 6,6.3 0,3.7 -2.4,6.2 -5.7,6.2 -3.6,0 -6.1,-2.6 -6.1,-6.2 0,-3.6 2.4,-6.3 5.8,-6.3 z m 14.1,7.2 v 5.2 h 15.3 v 5.3 h 6.4 v -5.3 h 3.7 v -5.7 h -3.7 v -24.4 h -5.4 z m 15.3,-0.5 h -8.8 l 8.8,-13.7 z" />
</svg>