<svg xmlns="http://www.w3.org/2000/svg"
  id="youtube"
  viewBox="0 0 24 24"
  fill="none"
  stroke="currentColor"
  stroke-width="2"
  stroke-linecap="round"
  stroke-linejoin="round"
>
  <path d="M22.5 6.4a2.8 2.8 0 0 0-1.9-2C18.9 4 12 4 12 4s-6.9 0-8.6 0.5a2.8 2.8 0 0 0-1.9 2A29 29 0 0 0 1 11.8a29 29 0 0 0 0.5 5.3A2.8 2.8 0 0 0 3.4 19c1.7 0.5 8.6 0.5 8.6 0.5s6.9 0 8.6-0.5a2.8 2.8 0 0 0 1.9-2 29 29 0 0 0 0.5-5.2 29 29 0 0 0-0.5-5.3z" />
  <polygon points="9.8 15 15.5 11.8 9.8 8.5 9.8 15" />
</svg>