<svg xmlns="http://www.w3.org/2000/svg"
  id="zip"
  viewBox="0 0 64 64"
  fill="currentColor"
  stroke="none"
>
  <path d="M 5.5,44.6 H 22.3 V 39.8 H 11.8 L 21.6,27.2 V 22.4 h -15 v 4.8 h 8.6 L 5.5,39.8 Z m 20.2,0 h 5.3 V 22.4 H 25.7 Z M 25.7,20 h 5.3 V 15 H 25.7 Z m 9.6,32 h 5.3 v -9.5 c 2,1.8 4.1,2.6 6.8,2.6 6.4,0 11.1,-5 11.1,-11.7 0,-6.7 -4.6,-11.5 -11,-11.5 -3,0 -5.6,1.1 -7.3,3.1 V 22.4 H 35.3 Z M 46.7,26.8 c 3.8,0 6.5,2.9 6.5,6.8 0,3.8 -2.8,6.7 -6.3,6.7 -3.7,0 -6.5,-2.9 -6.5,-6.6 0,-3.9 2.8,-6.8 6.4,-6.8 z" />
</svg>